# xmcd
#
# Track frame offsets:
#	150
#	15797
#	29067
#	46322
#	62512
#	79622
#	97092
#	110062
#	126357
#	142330
#	154832
#	167752
#	182070
#	199230
#
# Disc length: 2828
#
# Revision: 3
# Processed by: cddbd v1.5.1PL0 Copyright (c) Steve Scherf et al.
# Submitted via: CDex 1.40Beta4
# Normalized: r2:TDELIM( - )
#
DISCID=c40b0a0e
DTITLE=Various Artist - True Country Heart
DYEAR=1999
DGENRE=Country
TTITLE0=Jo Dee Messina - Heads Carolina, Tails California
TTITLE1=Hal Ketchum - Stay Forever
TTITLE2=Wynonna - Tell Me Why
TTITLE3=Ruby Lovett - In the Arms of Love
TTITLE4=Tim MacGraw - Not a Moment Too Soon
TTITLE5=LeAnn Rimes - Unchained Melody
TTITLE6=Sawyer Brown - Six Days on the Road
TTITLE7=David Kersh - If I Never Stop Loving You
TTITLE8=Jeff Carson - The Car
TTITLE9=Blake and Brian - Straignt to You
TTITLE10=Junior Brown - Party Lights
TTITLE11=Lyle Lovett - You Can't Resist It
TTITLE12=Mary Black w/Emmylou Harris - Only a Women's Heart
TTITLE13=Kenny Hess - Let's Do Something We'll Regret
EXTD=YEAR: 1999 ID3G:   2
EXTT0=
EXTT1=
EXTT2=
EXTT3=
EXTT4=
EXTT5=
EXTT6=
EXTT7=
EXTT8=
EXTT9=
EXTT10=
EXTT11=
EXTT12=
EXTT13=
PLAYORDER=
